<svg 
 xmlns="http://www.w3.org/2000/svg"
 xmlns:xlink="http://www.w3.org/1999/xlink"
 width="50px" height="53px">
<defs>
<filter id="Filter_0">
    <feFlood flood-color="rgb(88, 85, 214)" flood-opacity="1" result="floodOut" />
    <feComposite operator="atop" in="floodOut" in2="SourceGraphic" result="compOut" />
    <feBlend mode="normal" in="compOut" in2="SourceGraphic" />
</filter>

</defs>
<g filter="url(#Filter_0)">
<path fill-rule="evenodd"  fill="rgb(0, 0, 0)"
 d="M49.854,10.165 L39.229,50.320 C38.802,51.935 37.359,53.000 35.783,53.000 C35.477,53.000 35.167,52.960 34.857,52.876 L22.400,49.496 L1.785,49.496 C0.799,49.496 -0.000,48.687 -0.000,47.689 L-0.000,11.540 C-0.000,10.541 0.799,9.732 1.785,9.732 L20.403,9.732 L22.269,2.680 C22.697,1.065 24.139,0.000 25.715,0.000 C26.021,0.000 26.332,0.040 26.641,0.124 L47.330,5.738 C49.234,6.254 50.365,8.237 49.854,10.165 ZM1.785,11.540 L1.785,47.689 L28.558,47.689 C29.543,47.689 30.343,46.878 30.343,45.881 L30.343,13.347 C30.343,12.351 29.543,11.540 28.558,11.540 L1.785,11.540 ZM47.952,8.326 C47.714,7.908 47.329,7.609 46.868,7.484 L26.179,1.870 C26.026,1.829 25.870,1.807 25.715,1.807 C24.910,1.808 24.202,2.359 23.993,3.148 L22.251,9.732 L28.558,9.732 C29.921,9.732 31.092,10.515 31.693,11.653 C32.307,11.819 33.439,12.127 34.477,12.409 L39.756,7.425 L41.234,7.826 L37.926,13.344 C38.897,13.608 39.887,13.877 40.537,14.052 L42.542,12.859 L43.527,13.126 L41.972,15.511 L42.141,18.364 L41.156,18.097 L40.009,16.048 C39.359,15.871 38.368,15.603 37.398,15.339 L37.538,21.793 L36.060,21.392 L33.949,14.404 C33.327,14.235 32.684,14.060 32.128,13.909 L32.128,28.273 L32.242,27.841 L33.966,28.309 L33.042,31.800 L32.128,31.552 L32.128,45.881 C32.128,47.692 30.810,49.177 29.095,49.441 L35.319,51.130 C35.472,51.172 35.628,51.193 35.783,51.193 C36.588,51.193 37.296,50.641 37.505,49.852 L48.131,9.697 C48.254,9.231 48.190,8.744 47.952,8.326 ZM39.881,27.128 L40.337,25.380 L42.033,25.835 L41.577,27.582 L39.881,27.128 ZM36.490,32.738 L37.414,29.247 L39.138,29.714 L38.214,33.206 L36.490,32.738 ZM36.493,26.216 L36.950,24.469 L38.646,24.924 L38.189,26.671 L36.493,26.216 ZM34.056,48.915 L32.332,48.447 L35.566,36.227 L37.290,36.695 L34.056,48.915 ZM33.106,25.308 L33.562,23.560 L35.258,24.015 L34.802,25.762 L33.106,25.308 ZM16.064,36.844 C10.149,36.844 5.355,31.989 5.355,25.999 C5.355,20.010 10.149,15.155 16.064,15.155 C21.978,15.155 26.773,20.010 26.773,25.999 C26.773,31.989 21.978,36.844 16.064,36.844 ZM15.804,35.010 C15.893,35.012 15.975,35.036 16.064,35.036 C16.153,35.036 16.235,35.013 16.323,35.010 C16.965,34.011 17.797,32.362 18.301,30.066 L13.827,30.066 C14.331,32.364 15.165,34.014 15.804,35.010 ZM18.600,28.259 C18.682,27.547 18.741,26.806 18.741,25.999 C18.741,25.192 18.683,24.451 18.601,23.740 L13.527,23.740 C13.445,24.451 13.386,25.192 13.386,25.999 C13.386,26.806 13.446,27.547 13.529,28.259 L18.600,28.259 ZM13.530,34.620 C12.954,33.470 12.377,31.943 12.004,30.066 L8.138,30.066 C9.237,32.251 11.172,33.907 13.530,34.620 ZM7.140,25.999 C7.140,26.784 7.270,27.532 7.456,28.259 L11.731,28.259 C11.655,27.542 11.602,26.799 11.602,25.999 C11.602,25.200 11.654,24.456 11.728,23.740 L7.456,23.740 C7.270,24.466 7.140,25.215 7.140,25.999 ZM8.138,21.932 L11.999,21.932 C12.369,20.059 12.946,18.543 13.532,17.378 C11.174,18.091 9.238,19.746 8.138,21.932 ZM16.326,16.989 C16.237,16.986 16.154,16.962 16.064,16.962 C15.975,16.962 15.892,16.986 15.804,16.988 C15.138,18.023 14.320,19.667 13.824,21.932 L18.304,21.932 C17.810,19.675 16.996,18.029 16.326,16.989 ZM18.596,17.378 C19.184,18.546 19.761,20.059 20.130,21.932 L23.990,21.932 C22.890,19.746 20.954,18.090 18.596,17.378 ZM24.988,25.999 C24.988,25.215 24.858,24.466 24.672,23.740 L20.400,23.740 C20.475,24.456 20.526,25.200 20.526,25.999 C20.526,26.799 20.473,27.542 20.398,28.259 L24.672,28.259 C24.858,27.532 24.988,26.784 24.988,25.999 ZM20.125,30.066 C19.753,31.943 19.176,33.469 18.599,34.620 C20.956,33.907 22.891,32.251 23.990,30.066 L20.125,30.066 ZM24.988,44.074 L7.140,44.074 L7.140,42.266 L24.988,42.266 L24.988,44.074 Z"/>
</g>
</svg>